<svg width="25" height="25" viewBox="0 0 25 25" fill="none" xmlns="http://www.w3.org/2000/svg">
<g clip-path="url(#clip0)">
<path d="M24.8751 12.0917C24.8194 12.0087 23.4848 10.0356 21.3167 8.03869C20.033 6.85646 18.7217 5.91198 17.4192 5.23156C15.7564 4.36291 14.1013 3.92249 12.4996 3.92249C10.8979 3.92249 9.24268 4.36291 7.57994 5.23156C6.27741 5.91203 4.96613 6.85646 3.68244 8.03869C1.51423 10.0356 0.17976 12.0087 0.12395 12.0917C-0.0419677 12.3386 -0.0419677 12.6613 0.12395 12.9083C0.179712 12.9913 1.51423 14.9644 3.68239 16.9613C4.96608 18.1435 6.27741 19.088 7.57989 19.7684C9.24263 20.6371 10.8978 21.0775 12.4995 21.0775C14.1012 21.0775 15.7564 20.6371 17.4191 19.7684C18.7217 19.0879 20.0329 18.1435 21.3166 16.9613C23.4848 14.9644 24.8193 12.9913 24.8751 12.9083C25.041 12.6613 25.041 12.3386 24.8751 12.0917ZM20.3013 15.905C18.4596 17.5964 15.611 19.6126 12.4996 19.6126C9.38824 19.6126 6.53966 17.5964 4.69792 15.905C3.21535 14.5435 2.12624 13.1647 1.63303 12.5C2.12634 11.8352 3.21535 10.4565 4.69787 9.09499C6.53961 7.40358 9.38819 5.38733 12.4996 5.38733C15.6109 5.38733 18.4596 7.40358 20.3013 9.09499C21.7837 10.4565 22.8729 11.8353 23.3661 12.5C22.8728 13.1648 21.7837 14.5435 20.3013 15.905Z" fill="#626262"/>
<path d="M12.5 8.62952C10.3659 8.62952 8.62964 10.3658 8.62964 12.5C8.62964 14.6341 10.3659 16.3704 12.5 16.3704C14.6342 16.3704 16.3705 14.6341 16.3705 12.5C16.3705 10.3658 14.6342 8.62952 12.5 8.62952ZM12.5 14.9055C11.1736 14.9055 10.0945 13.8264 10.0945 12.4999C10.0945 11.1735 11.1736 10.0943 12.5 10.0943C13.8265 10.0943 14.9057 11.1735 14.9057 12.4999C14.9057 13.8264 13.8265 14.9055 12.5 14.9055Z" fill="#626262"/>
</g>
<defs>
<clipPath id="clip0">
<rect width="25" height="25" fill="white"/>
</clipPath>
</defs>
</svg>
